<svg version="1.1" xmlns="http://www.w3.org/2000/svg" width="256" height="256" viewBox="-90 -90 180 180">
  <g style="stroke-width:10;stroke-linejoin:round;opacity:1">
    <polygon fill="#000000" stroke="#000000" points="-4.805233267469E-15,-65.094812846431 69.401052655145,-44.476107515439 6.2900873118245E-15,-17.486063625847 -69.401052655145,-44.476107515439"/>
    <polygon fill="#000000" stroke="#000000" points="6.2900873118245E-15,-17.486063625847 69.401052655145,-44.476107515439 63.772879100375,40.869256573548 5.7084587704048E-15,77.330492531279"/>
    <polygon fill="#000000" stroke="#000000" points="-69.401052655145,-44.476107515439 6.2900873118245E-15,-17.486063625847 5.7084587704048E-15,77.330492531279 -63.772879100375,40.869256573548"/>
  </g>
  <g style="opacity:1;stroke-opacity:0.5;stroke-width:0;stroke-linejoin:round">
    <polygon fill="#FFFFFF" stroke="#000000" points="-4.8325893644361E-15,-68.199896460558 19.205298057808,-62.494098546865 -1.6664989365752E-15,-56.300979475022 -19.205298057808,-62.494098546865"/>
    <polygon fill="#FFFFFF" stroke="#000000" points="22.745655857555,-61.395440761777 43.591241257069,-55.202321689933 24.45911480573,-48.456664705956 3.5403577997463,-55.202321689933"/>
    <polygon fill="#FFFFFF" stroke="#000000" points="47.448695548223,-54.005082475424 70.154083108851,-47.259425491447 51.188798997118,-39.883833465519 28.316569096884,-47.259425491447"/>
    <polygon fill="#FFFFFF" stroke="#000000" points="-22.745655857555,-61.395440761777 -3.5403577997463,-55.202321689933 -24.45911480573,-48.456664705956 -43.591241257069,-55.202321689933"/>
    <polygon fill="#FFFFFF" stroke="#000000" points="-1.1693520981945E-15,-54.005082475424 20.918757005983,-47.259425491447 1.2988883089255E-15,-39.883833465519 -20.918757005983,-47.259425491447"/>
    <polygon fill="#FFFFFF" stroke="#000000" points="24.791109860545,-45.94968333329 47.663339760779,-38.574091307363 26.840261533617,-30.476003832232 3.8723528545622,-38.574091307363"/>
    <polygon fill="#BFBFBF" stroke="#000000" points="-47.448695548223,-54.005082475424 -28.316569096884,-47.259425491447 -51.188798997118,-39.883833465519 -70.154083108851,-47.259425491447"/>
    <polygon fill="#BFBFBF" stroke="#000000" points="-24.791109860545,-45.94968333329 -3.8723528545622,-38.574091307363 -26.840261533617,-30.476003832232 -47.663339760779,-38.574091307363"/>
    <polygon fill="#BFBFBF" stroke="#000000" points="1.9047923286574E-15,-37.135167488884 22.967908679055,-29.037080013753 6.3034641451652E-15,-20.104868763584 -22.967908679055,-29.037080013753"/>
    <polygon fill="#BFBFBF" stroke="#000000" points="1.9631707468782,-16.805797580758 24.931079425933,-25.738008830926 24.212439211498,3.5533770993064 1.9631707468782,13.651180930014"/>
    <polygon fill="#FFFFFF" stroke="#000000" points="28.742978325974,-27.336409880502 49.566056553137,-35.434497355633 48.257950299624,-7.2280245952928 28.024338111539,1.9549760497307"/>
    <polygon fill="#FFFFFF" stroke="#000000" points="53.033974919225,-36.889074865783 71.999259030958,-44.26466689171 70.20586525421,-17.069726412003 51.725868665711,-8.6826021054421"/>
    <polygon fill="#BFBFBF" stroke="#000000" points="1.903608948625,18.766268025426 24.152877413244,8.6684641947183 23.477843699708,36.182472765281 1.903608948625,47.286016169601"/>
    <polygon fill="#FFFFFF" stroke="#000000" points="27.852203157289,6.8839400831817 48.085815345373,-2.2990605618417 46.853592744971,24.271145887037 27.177169443752,34.397948653744"/>
    <polygon fill="#FFFFFF" stroke="#000000" points="51.460999748221,-3.9275764836104 69.94099633672,-12.314700790172 68.24725485867,13.369116830247 50.228777147818,22.642629965269"/>
    <polygon fill="#BFBFBF" stroke="#000000" points="1.8475548882777,52.087197676557 23.42178963936,40.983654272237 22.786510288759,66.877296540233 1.8475548882777,78.848846270076"/>
    <polygon fill="#FFFFFF" stroke="#000000" points="27.015011538882,39.037917697491 46.691434840101,28.911114930784 45.528678965107,53.983422189349 26.37973218828,64.931559965487"/>
    <polygon fill="#FFFFFF" stroke="#000000" points="49.978683628442,27.130757711527 67.997161339294,17.857244576505 66.394990720097,42.152485918549 48.815927753448,52.203064970092"/>
    <polygon fill="#BFBFBF" stroke="#000000" points="-72.042078518302,-44.175414043419 -53.076794406569,-36.799822017491 -51.768688153056,-8.5933492571509 -70.248684741555,-16.980473563712"/>
    <polygon fill="#BFBFBF" stroke="#000000" points="-49.618068262468,-35.338769722996 -28.794990035305,-27.240682247865 -28.07634982087,2.0507036823682 -48.309962008954,-7.1322969626552"/>
    <polygon fill="#BFBFBF" stroke="#000000" points="-24.994488856618,-25.635162426761 -2.0265801775636,-16.702951176593 -2.0265801775636,13.75402733418 -24.275848642183,3.6562235034717"/>
    <polygon fill="#BFBFBF" stroke="#000000" points="-69.98171859063,-12.23649001119 -51.501722002131,-3.8493657046286 -50.269499401728,22.720840744251 -68.28797711258,13.447327609229"/>
    <polygon fill="#BFBFBF" stroke="#000000" points="-48.134979070685,-2.2157839040461 -27.901366882601,6.9672167409773 -27.226333169064,34.48122531154 -46.902756470283,24.354422544833"/>
    <polygon fill="#BFBFBF" stroke="#000000" points="-24.212439211498,8.7572059218017 -1.9631707468782,18.85500975251 -1.9631707468782,47.374757896684 -23.537405497961,36.271214492364"/>
    <polygon fill="#BFBFBF" stroke="#000000" points="-68.035933228488,17.925809216198 -50.017455517636,27.19932235122 -48.854699642642,52.271629609785 -66.433762609291,42.221050558242"/>
    <polygon fill="#BFBFBF" stroke="#000000" points="-46.737976886371,28.98358566691 -27.061553585152,39.110388433617 -26.42627423455,65.004030701613 -45.575221011377,54.055892925475"/>
    <polygon fill="#BFBFBF" stroke="#000000" points="-23.477843699708,41.060243065666 -1.9036089486249,52.163786469985 -1.9036089486249,78.925435063504 -22.842564349106,66.953885333662"/>
  </g>
  <g style="opacity:1;stroke-opacity:1;stroke-width:4;stroke-linecap:round">
    <path d="M 13.087804979188,-6.6262102407257 L 12.317032588518,59.482247108395" style="fill:none;stroke:#0000F2;stroke-opacity:1" transform=""/>
    <path d="M 577,0.0 L -288,500 L -288,-500 L 577,0.0 z" style="fill:#0000F2;stroke-width:0;stroke-linejoin:round" transform=" translate(12.317032588518,59.482247108395) scale(0.011) rotate(90.667993261353)"/>
  </g>
  <text x="-55" y="30" font-size="28" font-family="sans-serif" fill="#960019">F</text>
</svg>