<?xml version="1.0" encoding="UTF-8" standalone="no"?>
<!DOCTYPE svg PUBLIC "-//W3C//DTD SVG 1.1//EN" "http://www.w3.org/Graphics/SVG/1.1/DTD/svg11.dtd">
<svg xmlns:xl="http://www.w3.org/1999/xlink" xmlns:dc="http://purl.org/dc/elements/1.1/" version="1.1" xmlns="http://www.w3.org/2000/svg" viewBox="80 80 340 324" width="340" height="324">
  <defs/>
  <g id="Canvas_1" fill="none" stroke="none" stroke-opacity="1" stroke-dasharray="none" fill-opacity="1">
    <title>Canvas 1</title>
    <g id="Canvas_1_Layer_1">
      <title>Layer 1</title>
      <g id="Graphic_2">
        <rect x="100" y="100" width="300" height="300" fill="white"/>
        <rect x="100" y="100" width="300" height="300" stroke="black" stroke-linecap="round" stroke-linejoin="round" stroke-width="8"/>
      </g>
      <g id="Line_4">
        <line x1="100" y1="200" x2="400" y2="200" stroke="black" stroke-linecap="round" stroke-linejoin="round" stroke-width="8"/>
      </g>
      <g id="Line_8">
        <line x1="100" y1="300" x2="400" y2="300" stroke="black" stroke-linecap="round" stroke-linejoin="round" stroke-width="8"/>
      </g>
      <g id="Line_9">
        <line x1="200" y1="100" x2="200" y2="400" stroke="black" stroke-linecap="round" stroke-linejoin="round" stroke-width="8"/>
      </g>
      <g id="Line_10">
        <line x1="300" y1="100" x2="300" y2="400" stroke="black" stroke-linecap="round" stroke-linejoin="round" stroke-width="8"/>
      </g>
      <g id="Graphic_20">
        <rect x="210" y="110" width="80" height="80" fill="#ff4040"/>
      </g>
      <g id="Graphic_31">
        <rect x="210" y="210" width="80" height="80" fill="#ff4040"/>
      </g>
      <g id="Graphic_32">
        <rect x="110" y="210" width="80" height="80" fill="#ff4040"/>
      </g>
      <g id="Graphic_33">
        <rect x="310" y="210" width="80" height="80" fill="#ff4040"/>
      </g>
      <g id="Graphic_35">
        <rect x="210" y="310" width="80" height="80" fill="#ff4040"/>
      </g>
      <g id="Graphic_36">
        <rect x="310" y="310" width="80" height="80" fill="#ff4040"/>
      </g>
      <g id="Graphic_37">
        <rect x="410" y="105" width="10" height="90" fill="#ff4040"/>
      </g>
      <g id="Graphic_38">
        <rect x="80" y="305" width="10" height="90" fill="#ff4040"/>
      </g>
      <g id="Graphic_39">
        <rect x="105" y="80" width="90" height="10" fill="#ff4040"/>
      </g>
    </g>
  </g>
</svg>
