<?xml version="1.0" encoding="UTF-8" standalone="no"?>
<!DOCTYPE svg PUBLIC "-//W3C//DTD SVG 1.1//EN" "http://www.w3.org/Graphics/SVG/1.1/DTD/svg11.dtd">
<svg xmlns:xl="http://www.w3.org/1999/xlink" xmlns:dc="http://purl.org/dc/elements/1.1/" version="1.1" xmlns="http://www.w3.org/2000/svg" viewBox="80 510 324 340" width="324" height="340">
  <defs/>
  <g id="Canvas_1" fill="none" stroke="none" stroke-opacity="1" stroke-dasharray="none" fill-opacity="1">
    <title>Canvas 1</title>
    <g id="Canvas_1_Layer_1">
      <title>Layer 1</title>
      <g id="Graphic_55">
        <rect x="100" y="530" width="300" height="300" fill="white"/>
        <rect x="100" y="530" width="300" height="300" stroke="black" stroke-linecap="round" stroke-linejoin="round" stroke-width="8"/>
      </g>
      <g id="Line_54">
        <line x1="100" y1="630" x2="400" y2="630" stroke="black" stroke-linecap="round" stroke-linejoin="round" stroke-width="8"/>
      </g>
      <g id="Line_53">
        <line x1="100" y1="730" x2="400" y2="730" stroke="black" stroke-linecap="round" stroke-linejoin="round" stroke-width="8"/>
      </g>
      <g id="Line_52">
        <line x1="200" y1="530" x2="200" y2="830" stroke="black" stroke-linecap="round" stroke-linejoin="round" stroke-width="8"/>
      </g>
      <g id="Line_51">
        <line x1="300" y1="530" x2="300" y2="830" stroke="black" stroke-linecap="round" stroke-linejoin="round" stroke-width="8"/>
      </g>
      <g id="Graphic_50">
        <rect x="210" y="540" width="80" height="80" fill="#ff4040"/>
      </g>
      <g id="Graphic_49">
        <rect x="210" y="640" width="80" height="80" fill="#ff4040"/>
      </g>
      <g id="Graphic_48">
        <rect x="110" y="640" width="80" height="80" fill="#ff4040"/>
      </g>
      <g id="Graphic_47">
        <rect x="310" y="640" width="80" height="80" fill="#ff4040"/>
      </g>
      <g id="Graphic_46">
        <rect x="210" y="740" width="80" height="80" fill="#ff4040"/>
      </g>
      <g id="Graphic_45">
        <rect x="310" y="740" width="80" height="80" fill="#ff4040"/>
      </g>
      <g id="Graphic_44">
        <rect x="80" y="535" width="10" height="90" fill="#ff4040"/>
      </g>
      <g id="Graphic_42">
        <rect x="305" y="510" width="90" height="10" fill="#ff4040"/>
      </g>
      <g id="Graphic_56">
        <rect x="105" y="840" width="90" height="10" fill="#ff4040"/>
      </g>
    </g>
  </g>
</svg>
