<?xml version="1.0" encoding="UTF-8" standalone="no"?>
<!DOCTYPE svg PUBLIC "-//W3C//DTD SVG 1.1//EN" "http://www.w3.org/Graphics/SVG/1.1/DTD/svg11.dtd">
<svg xmlns:xl="http://www.w3.org/1999/xlink" xmlns:dc="http://purl.org/dc/elements/1.1/" version="1.1" xmlns="http://www.w3.org/2000/svg" viewBox="96 960 324 324" width="324" height="324">
  <defs/>
  <g id="Canvas_1" fill="none" stroke="none" stroke-opacity="1" stroke-dasharray="none" fill-opacity="1">
    <title>Canvas 1</title>
    <g id="Canvas_1_Layer_1">
      <title>Layer 1</title>
      <g id="Graphic_101">
        <rect x="100" y="980" width="300" height="300" fill="white"/>
        <rect x="100" y="980" width="300" height="300" stroke="black" stroke-linecap="round" stroke-linejoin="round" stroke-width="8"/>
      </g>
      <g id="Line_100">
        <line x1="100" y1="1080" x2="400" y2="1080" stroke="black" stroke-linecap="round" stroke-linejoin="round" stroke-width="8"/>
      </g>
      <g id="Line_99">
        <line x1="100" y1="1180" x2="400" y2="1180" stroke="black" stroke-linecap="round" stroke-linejoin="round" stroke-width="8"/>
      </g>
      <g id="Line_98">
        <line x1="200" y1="980" x2="200" y2="1280" stroke="black" stroke-linecap="round" stroke-linejoin="round" stroke-width="8"/>
      </g>
      <g id="Line_97">
        <line x1="300" y1="980" x2="300" y2="1280" stroke="black" stroke-linecap="round" stroke-linejoin="round" stroke-width="8"/>
      </g>
      <g id="Graphic_96">
        <rect x="210" y="990" width="80" height="80" fill="#ff4040"/>
      </g>
      <g id="Graphic_95">
        <rect x="210" y="1090" width="80" height="80" fill="#ff4040"/>
      </g>
      <g id="Graphic_94">
        <rect x="110" y="1090" width="80" height="80" fill="#ff4040"/>
      </g>
      <g id="Graphic_93">
        <rect x="310" y="1090" width="80" height="80" fill="#ff4040"/>
      </g>
      <g id="Graphic_92">
        <rect x="210" y="1190" width="80" height="80" fill="#ff4040"/>
      </g>
      <g id="Graphic_91">
        <rect x="310" y="990" width="80" height="80" fill="#ff4040"/>
      </g>
      <g id="Graphic_90">
        <rect x="410" y="1185" width="10" height="90" fill="#ff4040"/>
      </g>
      <g id="Graphic_89">
        <rect x="105" y="960" width="90" height="10" fill="#ff4040"/>
      </g>
      <g id="Graphic_102">
        <rect x="110" y="1190" width="80" height="80" fill="#ff4040"/>
      </g>
    </g>
  </g>
</svg>
