<?xml version="1.0" encoding="UTF-8" standalone="no"?>
<!DOCTYPE svg PUBLIC "-//W3C//DTD SVG 1.1//EN" "http://www.w3.org/Graphics/SVG/1.1/DTD/svg11.dtd">
<svg xmlns:xl="http://www.w3.org/1999/xlink" xmlns:dc="http://purl.org/dc/elements/1.1/" version="1.1" xmlns="http://www.w3.org/2000/svg" viewBox="96 1410 308 340" width="308" height="340">
  <defs/>
  <g id="Canvas_1" fill="none" stroke="none" stroke-opacity="1" stroke-dasharray="none" fill-opacity="1">
    <title>Canvas 1</title>
    <g id="Canvas_1_Layer_1">
      <title>Layer 1</title>
      <g id="Graphic_117">
        <rect x="100" y="1430" width="300" height="300" fill="white"/>
        <rect x="100" y="1430" width="300" height="300" stroke="black" stroke-linecap="round" stroke-linejoin="round" stroke-width="8"/>
      </g>
      <g id="Line_116">
        <line x1="100" y1="1530" x2="400" y2="1530" stroke="black" stroke-linecap="round" stroke-linejoin="round" stroke-width="8"/>
      </g>
      <g id="Line_115">
        <line x1="100" y1="1630" x2="400" y2="1630" stroke="black" stroke-linecap="round" stroke-linejoin="round" stroke-width="8"/>
      </g>
      <g id="Line_114">
        <line x1="200" y1="1430" x2="200" y2="1730" stroke="black" stroke-linecap="round" stroke-linejoin="round" stroke-width="8"/>
      </g>
      <g id="Line_113">
        <line x1="300" y1="1430" x2="300" y2="1730" stroke="black" stroke-linecap="round" stroke-linejoin="round" stroke-width="8"/>
      </g>
      <g id="Graphic_112">
        <rect x="210" y="1440" width="80" height="80" fill="#ff4040"/>
      </g>
      <g id="Graphic_111">
        <rect x="210" y="1540" width="80" height="80" fill="#ff4040"/>
      </g>
      <g id="Graphic_110">
        <rect x="110" y="1540" width="80" height="80" fill="#ff4040"/>
      </g>
      <g id="Graphic_109">
        <rect x="310" y="1540" width="80" height="80" fill="#ff4040"/>
      </g>
      <g id="Graphic_108">
        <rect x="210" y="1640" width="80" height="80" fill="#ff4040"/>
      </g>
      <g id="Graphic_107">
        <rect x="110" y="1440" width="80" height="80" fill="#ff4040"/>
      </g>
      <g id="Graphic_105">
        <rect x="305" y="1410" width="90" height="10" fill="#ff4040"/>
      </g>
      <g id="Graphic_103">
        <rect x="110" y="1640" width="80" height="80" fill="#ff4040"/>
      </g>
      <g id="Graphic_118">
        <rect x="305" y="1740" width="90" height="10" fill="#ff4040"/>
      </g>
    </g>
  </g>
</svg>
