<?xml version="1.0" encoding="UTF-8"?>
<svg width="288px" height="288px" viewBox="0 0 288 288" version="1.1" xmlns="http://www.w3.org/2000/svg" xmlns:xlink="http://www.w3.org/1999/xlink">
    <title>Group 2</title>
    <g id="Page-1" stroke="none" stroke-width="1" fill="none" fill-rule="evenodd">
        <g id="Group-2">
            <path id="Line-Copy-3" d="M214,132 L238,144 L214,156 L214,146 L48,146 L48,142 L214,142 L214,132 Z" transform="translate(144, 144) scale(-1, 1) translate(-144, -144)" fill="#000000" fill-rule="nonzero"></path>
            <path id="Line-Copy-4" d="M144,141.171573 L145.414214,142.585786 L222.443,219.615 L229.514719,212.544156 L238,238 L212.544156,229.514719 L219.615,222.443 L142.585786,145.414214 L141.171573,144 L144,141.171573 Z" transform="translate(191, 191) scale(1, -1) translate(-191, -191)" fill="#000000" fill-rule="nonzero"></path>
            <path id="Line-Copy-5" d="M50,141.171573 L51.4142136,142.585786 L128.443,219.615 L135.514719,212.544156 L144,238 L118.544156,229.514719 L125.615,222.443 L48.5857864,145.414214 L47.1715729,144 L50,141.171573 Z" fill="#000000" fill-rule="nonzero"></path>
            <rect id="Rectangle-Copy-9" stroke="#000000" stroke-width="6" x="3" y="3" width="94" height="94"></rect>
            <rect id="Rectangle-Copy-10" stroke="#000000" stroke-width="6" x="3" y="97" width="94" height="94"></rect>
            <rect id="Rectangle-Copy-11" stroke="#000000" stroke-width="6" x="3" y="191" width="94" height="94"></rect>
            <rect id="Rectangle-Copy-12" stroke="#000000" stroke-width="6" x="97" y="3" width="94" height="94"></rect>
            <rect id="Rectangle-Copy-13" stroke="#000000" stroke-width="6" x="97" y="97" width="94" height="94"></rect>
            <rect id="Rectangle-Copy-14" stroke="#000000" stroke-width="6" x="97" y="191" width="94" height="94"></rect>
            <rect id="Rectangle-Copy-15" stroke="#000000" stroke-width="6" x="191" y="3" width="94" height="94"></rect>
            <rect id="Rectangle-Copy-16" stroke="#000000" stroke-width="6" x="191" y="97" width="94" height="94"></rect>
            <rect id="Rectangle-Copy-17" stroke="#000000" stroke-width="6" x="191" y="191" width="94" height="94"></rect>
        </g>
    </g>
</svg>