<?xml version="1.0" encoding="UTF-8"?>
<svg width="288px" height="288px" viewBox="0 0 288 288" version="1.1" xmlns="http://www.w3.org/2000/svg" xmlns:xlink="http://www.w3.org/1999/xlink">
    <title>Group</title>
    <g id="Page-1" stroke="none" stroke-width="1" fill="none" fill-rule="evenodd">
        <g id="Group">
            <path id="Line" d="M214,132 L238,144 L214,156 L214,146 L48,146 L48,142 L214,142 L214,132 Z" fill="#000000" fill-rule="nonzero"></path>
            <path id="Line-Copy" d="M238,141.171573 L240.828427,144 L239.414214,145.414214 L162.384,222.443 L169.455844,229.514719 L144,238 L152.485281,212.544156 L159.556,219.615 L236.585786,142.585786 L238,141.171573 Z" fill="#000000" fill-rule="nonzero"></path>
            <path id="Line-Copy-2" d="M50,144 L75.4558441,152.485281 L68.384,159.556 L145.414214,236.585786 L146.828427,238 L144,240.828427 L142.585786,239.414214 L65.556,162.384 L58.4852814,169.455844 L50,144 Z" fill="#000000" fill-rule="nonzero"></path>
            <rect id="Rectangle" stroke="#000000" stroke-width="6" x="3" y="3" width="94" height="94"></rect>
            <rect id="Rectangle-Copy-3" stroke="#000000" stroke-width="6" x="3" y="97" width="94" height="94"></rect>
            <rect id="Rectangle-Copy-6" stroke="#000000" stroke-width="6" x="3" y="191" width="94" height="94"></rect>
            <rect id="Rectangle-Copy" stroke="#000000" stroke-width="6" x="97" y="3" width="94" height="94"></rect>
            <rect id="Rectangle-Copy-4" stroke="#000000" stroke-width="6" x="97" y="97" width="94" height="94"></rect>
            <rect id="Rectangle-Copy-7" stroke="#000000" stroke-width="6" x="97" y="191" width="94" height="94"></rect>
            <rect id="Rectangle-Copy-2" stroke="#000000" stroke-width="6" x="191" y="3" width="94" height="94"></rect>
            <rect id="Rectangle-Copy-5" stroke="#000000" stroke-width="6" x="191" y="97" width="94" height="94"></rect>
            <rect id="Rectangle-Copy-8" stroke="#000000" stroke-width="6" x="191" y="191" width="94" height="94"></rect>
        </g>
    </g>
</svg>