<?xml version="1.0" encoding="UTF-8"?>
<svg width="288px" height="288px" viewBox="0 0 288 288" version="1.1" xmlns="http://www.w3.org/2000/svg" xmlns:xlink="http://www.w3.org/1999/xlink">
    <title>Group 3</title>
    <g id="Page-1" stroke="none" stroke-width="1" fill="none" fill-rule="evenodd">
        <g id="Group-3" transform="translate(0, 0)">
            <path id="Line-Copy-6" d="M214,132 L238,144 L214,156 L213.999,146 L73.999,146 L74,156 L50,144 L74,132 L73.999,142 L213.999,142 L214,132 Z" transform="translate(144, 144) scale(-1, 1) translate(-144, -144)" fill="#000000" fill-rule="nonzero"></path>
            <path id="Line-Copy-8" d="M144,50 L156,74 L145.999,74 L145.999,214 L156,214 L144,238 L132,214 L141.999,214 L141.999,74 L132,74 L144,50 Z" fill="#000000" fill-rule="nonzero"></path>
            <rect id="Rectangle-Copy-18" stroke="#000000" stroke-width="6" x="3" y="3" width="94" height="94"></rect>
            <rect id="Rectangle-Copy-19" stroke="#000000" stroke-width="6" x="3" y="97" width="94" height="94"></rect>
            <rect id="Rectangle-Copy-20" stroke="#000000" stroke-width="6" x="3" y="191" width="94" height="94"></rect>
            <rect id="Rectangle-Copy-21" stroke="#000000" stroke-width="6" x="97" y="3" width="94" height="94"></rect>
            <rect id="Rectangle-Copy-22" stroke="#000000" stroke-width="6" x="97" y="97" width="94" height="94"></rect>
            <rect id="Rectangle-Copy-23" stroke="#000000" stroke-width="6" x="97" y="191" width="94" height="94"></rect>
            <rect id="Rectangle-Copy-24" stroke="#000000" stroke-width="6" x="191" y="3" width="94" height="94"></rect>
            <rect id="Rectangle-Copy-25" stroke="#000000" stroke-width="6" x="191" y="97" width="94" height="94"></rect>
            <rect id="Rectangle-Copy-26" stroke="#000000" stroke-width="6" x="191" y="191" width="94" height="94"></rect>
        </g>
    </g>
</svg>