<?xml version="1.0" encoding="UTF-8"?>
<svg width="288px" height="288px" viewBox="0 0 288 288" version="1.1" xmlns="http://www.w3.org/2000/svg" xmlns:xlink="http://www.w3.org/1999/xlink">
    <title>Group 4</title>
    <g id="Page-1" stroke="none" stroke-width="1" fill="none" fill-rule="evenodd">
        <g id="Group-4" transform="translate(0, 0)">
            <path id="Line-Copy-7" d="M50,50 L75.4558441,58.4852814 L68.384,65.556 L128.443,125.615 L135.514719,118.544156 L144,144 L118.544156,135.514719 L125.615,128.443 L65.556,68.384 L58.4852814,75.4558441 L50,50 Z" transform="translate(97, 97) scale(-1, 1) translate(-97, -97)" fill="#000000" fill-rule="nonzero"></path>
            <path id="Line-Copy-9" d="M238,144 L229.514719,169.455844 L222.443,162.384 L162.384,222.443 L169.455844,229.514719 L144,238 L152.485281,212.544156 L159.556,219.615 L219.615,159.556 L212.544156,152.485281 L238,144 Z" fill="#000000" fill-rule="nonzero"></path>
            <rect id="Rectangle-Copy-27" stroke="#000000" stroke-width="6" x="3" y="3" width="94" height="94"></rect>
            <rect id="Rectangle-Copy-28" stroke="#000000" stroke-width="6" x="3" y="97" width="94" height="94"></rect>
            <rect id="Rectangle-Copy-29" stroke="#000000" stroke-width="6" x="3" y="191" width="94" height="94"></rect>
            <rect id="Rectangle-Copy-30" stroke="#000000" stroke-width="6" x="97" y="3" width="94" height="94"></rect>
            <rect id="Rectangle-Copy-31" stroke="#000000" stroke-width="6" x="97" y="97" width="94" height="94"></rect>
            <rect id="Rectangle-Copy-32" stroke="#000000" stroke-width="6" x="97" y="191" width="94" height="94"></rect>
            <rect id="Rectangle-Copy-33" stroke="#000000" stroke-width="6" x="191" y="3" width="94" height="94"></rect>
            <rect id="Rectangle-Copy-34" stroke="#000000" stroke-width="6" x="191" y="97" width="94" height="94"></rect>
            <rect id="Rectangle-Copy-35" stroke="#000000" stroke-width="6" x="191" y="191" width="94" height="94"></rect>
        </g>
    </g>
</svg>